<?xml version="1.0" standalone="no"?>
<!DOCTYPE svg PUBLIC "-//W3C//DTD SVG 20010904//EN"
 "http://www.w3.org/TR/2001/REC-SVG-20010904/DTD/svg10.dtd">
<svg version="1.0" xmlns="http://www.w3.org/2000/svg"
 width="1024.000000pt" height="1024.000000pt" viewBox="0 0 1024.000000 1024.000000"
 preserveAspectRatio="xMidYMid meet">

<g transform="translate(0.000000,1024.000000) scale(0.100000,-0.100000)"
fill="#000000" stroke="none">
<path d="M6574 8911 c-83 -61 -271 -271 -382 -428 -70 -97 -95 -140 -204 -339
l-50 -91 -141 -6 c-82 -3 -185 -14 -244 -26 -182 -38 -398 -123 -538 -212 -38
-25 -75 -48 -81 -52 -6 -3 25 150 68 341 86 383 91 435 53 476 -36 39 -84 34
-327 -35 -354 -100 -978 -317 -1110 -385 -39 -20 -58 -53 -58 -100 0 -40 4
-46 98 -132 53 -49 158 -140 232 -203 247 -207 320 -273 320 -286 0 -9 -21 -2
-62 21 -171 93 -433 177 -658 212 -144 22 -433 22 -558 0 -350 -63 -659 -211
-992 -476 -198 -158 -191 -150 -201 -203 -60 -327 -47 -787 30 -1062 53 -188
152 -416 244 -565 l47 -74 -58 -16 c-91 -25 -181 -79 -252 -150 -82 -83 -128
-161 -155 -262 l-21 -80 -70 -22 c-211 -67 -342 -247 -332 -459 8 -199 151
-349 360 -379 44 -6 246 -9 514 -6 l441 3 -61 -80 c-83 -107 -116 -160 -175
-285 -107 -227 -162 -455 -177 -736 -8 -137 -3 -168 29 -188 12 -8 92 -27 177
-42 141 -25 178 -28 405 -28 280 -1 355 9 566 70 14 4 17 -15 22 -163 6 -183
26 -298 76 -443 44 -131 105 -254 137 -280 28 -22 32 -22 209 -17 269 9 420
32 601 92 168 56 346 151 474 254 86 69 223 206 287 288 l65 83 93 0 c198 0
441 46 645 121 l115 43 1155 6 c1038 4 1160 7 1202 22 148 51 268 178 308 328
30 111 4 270 -60 370 -77 120 -230 217 -363 229 l-72 6 -7 63 c-14 131 -74
250 -183 366 -25 27 -42 52 -38 56 4 4 49 41 98 82 345 285 569 655 695 1147
37 145 70 334 63 364 -9 35 -40 63 -152 136 -193 126 -422 228 -621 276 -41
11 -77 20 -79 22 -2 1 8 20 22 40 43 63 97 189 97 228 0 27 -8 44 -28 65 -31
30 -70 41 -225 61 -83 11 -97 15 -91 28 44 100 58 232 33 311 -6 19 -12 112
-13 207 l-2 172 366 3 c360 3 366 3 418 27 129 58 201 212 172 368 -41 229
-258 413 -487 413 -41 0 -53 3 -53 15 0 37 -45 145 -87 207 -90 137 -214 214
-405 253 -22 4 -28 12 -34 41 -15 78 -83 120 -145 88 -96 -49 -344 -341 -479
-562 -24 -40 -37 -51 -49 -46 -48 20 -165 54 -229 65 -66 12 -73 16 -69 34 3
11 19 73 36 138 47 181 74 385 69 534 -3 122 -4 125 -31 149 -39 33 -84 31
-133 -5z m-147 -474 c40 -42 53 -65 68 -119 27 -103 12 -200 -60 -370 -6 -16
0 -18 68 -18 326 0 711 -195 907 -460 117 -158 167 -325 156 -517 -6 -92 -4
-119 9 -150 11 -24 16 -64 16 -112 -1 -85 -27 -152 -80 -211 -20 -22 -28 -27
-21 -13 7 14 7 24 0 28 -5 3 -10 1 -10 -4 0 -6 -9 -11 -21 -11 -11 0 -17 -4
-14 -10 3 -5 2 -10 -3 -10 -6 0 -19 -16 -31 -36 -21 -35 -30 -63 -11 -34 8 13
10 13 10 -2 0 -9 -15 -27 -32 -39 -18 -13 -35 -26 -38 -29 -3 -3 -23 -17 -45
-30 -22 -13 -44 -29 -48 -34 -9 -13 -8 -15 -129 159 -134 192 -243 314 -394
441 -33 27 -80 68 -107 91 -74 65 -291 205 -412 266 -372 188 -725 265 -1168
255 l-218 -5 43 44 c142 146 400 286 642 348 123 31 370 64 384 50 3 -3 -2
-21 -11 -40 -37 -77 -17 -125 52 -125 26 0 33 6 55 54 14 30 26 58 26 61 0 16
116 254 171 351 68 120 177 284 189 284 4 0 29 -24 57 -53z m-1542 -173 c-60
-251 -145 -634 -145 -654 0 -11 -20 -42 -45 -70 -24 -28 -51 -63 -60 -80 -11
-22 -25 -31 -53 -36 -20 -3 -71 -15 -114 -25 -42 -10 -81 -19 -87 -19 -12 0
-8 11 51 138 21 46 38 88 38 93 0 16 -59 6 -157 -25 -15 -5 -28 -1 -40 11 -21
20 -123 106 -358 303 -88 73 -160 138 -160 143 0 28 678 262 1070 369 63 18
91 22 93 13 1 -6 -13 -78 -33 -161z m2860 21 c149 -72 258 -243 241 -375 -5
-37 -2 -52 11 -69 18 -21 19 -22 57 -6 29 12 62 16 120 13 99 -4 172 -35 244
-102 126 -118 145 -301 39 -380 -27 -20 -41 -21 -355 -24 -180 -2 -355 -1
-388 3 -60 6 -62 8 -79 45 -9 21 -43 77 -74 124 l-58 86 38 148 c43 168 69
353 69 484 l0 91 41 -6 c22 -3 64 -17 94 -32z m-432 -127 c53 -53 84 -117 99
-205 9 -58 9 -80 -6 -145 -10 -43 -20 -78 -24 -78 -4 0 -32 19 -62 42 -74 56
-196 135 -220 143 -19 6 -19 8 -3 38 31 61 155 247 164 247 5 0 29 -19 52 -42z
m-3858 -639 c208 -26 485 -115 617 -200 l51 -33 -34 -14 c-220 -93 -468 -239
-634 -373 -100 -81 -263 -242 -338 -336 l-58 -71 -137 75 c-351 193 -762 369
-762 325 0 -5 9 -8 20 -5 14 4 20 0 20 -11 0 -9 -7 -16 -15 -16 -8 0 -15 -2
-15 -4 0 -2 -3 -11 -6 -20 -4 -10 -1 -16 9 -16 8 0 17 -4 19 -9 2 -5 21 -17
43 -28 150 -74 703 -371 743 -399 2 -1 -24 -43 -56 -92 -135 -206 -253 -483
-322 -757 -38 -150 -70 -353 -70 -443 0 -90 -9 -87 -128 33 -168 171 -280 331
-368 525 -146 326 -197 618 -174 997 15 258 23 302 63 336 192 168 360 283
542 373 328 161 617 208 990 163z m1896 -210 c262 -26 506 -95 724 -204 395
-197 723 -482 947 -825 60 -92 118 -193 118 -207 0 -4 -23 -21 -50 -36 -28
-16 -50 -25 -50 -21 0 4 -8 0 -17 -8 -23 -20 -143 -80 -143 -71 0 3 -8 -1 -17
-9 -23 -20 -1179 -598 -1196 -598 -7 0 -27 16 -45 35 -47 49 -200 149 -269
175 -282 106 -618 31 -827 -185 -138 -142 -212 -315 -231 -543 -8 -97 0 -89
-180 -179 -66 -34 -299 -151 -518 -262 -218 -110 -399 -201 -402 -201 -3 1
-38 -16 -78 -37 -39 -21 -77 -37 -84 -35 -8 2 -16 -4 -19 -12 -3 -8 -20 -20
-37 -27 -18 -7 -49 -23 -69 -36 l-36 -22 -31 73 c-74 177 -135 447 -151 671
-53 705 198 1397 678 1869 243 239 448 378 744 505 208 89 503 169 707 190
114 12 415 12 532 0z m2092 -894 c-3 -9 -8 -14 -10 -11 -3 3 -2 9 2 15 9 16
15 13 8 -4z m352 -96 c44 -6 82 -12 84 -14 6 -6 -61 -117 -97 -163 -19 -23
-62 -60 -96 -82 -58 -38 -199 -92 -277 -105 l-35 -7 -38 82 c-21 44 -37 82
-35 84 2 2 33 22 68 46 35 24 96 74 135 112 l71 68 70 -5 c39 -4 106 -11 150
-16z m147 -403 c147 -37 274 -84 413 -153 107 -54 265 -159 265 -176 0 -18
-47 -242 -66 -312 -58 -220 -179 -497 -284 -645 -59 -85 -132 -170 -140 -165
-6 3 -7 0 -5 -7 7 -18 -149 -170 -253 -247 -81 -59 -95 -66 -117 -61 -48 13
-159 29 -197 29 -27 1 -48 6 -48 11 0 6 4 10 9 10 5 0 8 10 6 23 -3 12 2 40
11 62 l15 40 -5 -40 c-5 -34 -4 -36 5 -15 5 13 7 41 4 61 -4 20 -1 65 5 100
28 153 32 197 38 428 l7 244 120 54 c66 30 171 79 233 109 62 30 116 54 120
54 6 0 337 158 351 167 14 9 -37 43 -63 43 -54 0 -437 -145 -671 -254 -55 -26
-102 -47 -104 -47 -3 0 -14 49 -26 108 -25 123 -61 258 -103 385 l-29 86 66
17 c84 20 162 51 231 91 30 18 60 33 67 33 6 1 72 -14 145 -33z m-810 -193
c37 -33 11 -87 -56 -113 -37 -14 -60 -6 -74 26 -16 34 -16 38 14 73 20 24 34
31 62 31 19 0 44 -7 54 -17z m267 -352 c36 -170 45 -271 45 -491 1 -256 -17
-389 -86 -634 l-23 -79 -55 -24 c-126 -55 -207 -111 -279 -197 -83 -98 -140
-245 -141 -362 0 -41 -1 -42 -47 -54 -101 -27 -192 -79 -274 -157 l-79 -75
-42 17 c-57 23 -231 32 -307 15 -216 -47 -391 -239 -391 -431 0 -70 14 -113
52 -162 17 -21 28 -40 27 -42 -10 -8 -184 -57 -269 -74 -218 -45 -593 -52
-830 -16 -343 53 -698 190 -980 378 -192 129 -409 322 -521 464 l-49 62 28 19
c15 10 133 73 262 139 315 162 791 404 973 496 l147 75 43 -33 c70 -53 128
-82 227 -116 263 -88 556 -22 764 172 132 123 208 268 241 456 8 48 16 88 18
89 1 1 234 117 517 257 283 140 621 307 750 371 l235 117 12 -42 c7 -23 21
-85 32 -138z m-2164 -208 c74 -38 147 -115 183 -191 24 -50 27 -70 27 -157 0
-109 -8 -139 -61 -220 -128 -195 -426 -221 -583 -49 -195 213 -121 542 142
636 40 14 73 18 142 15 77 -3 99 -8 150 -34z m-2966 -121 c58 -60 140 -134
182 -166 l76 -56 7 -103 c12 -173 63 -428 117 -589 10 -32 19 -60 19 -63 0 -3
-260 -4 -577 -3 -641 3 -618 1 -691 71 -56 54 -76 102 -76 187 -1 131 58 220
183 279 46 21 69 26 131 24 42 -1 81 4 88 10 10 8 12 28 7 81 -15 156 82 312
240 390 54 26 114 43 164 45 17 1 51 -27 130 -107z m5356 -1027 c87 -23 152
-62 226 -135 108 -107 147 -215 135 -376 -8 -110 1 -124 62 -106 70 21 93 23
155 12 182 -34 299 -169 298 -347 -1 -119 -64 -218 -176 -274 l-50 -24 -1150
0 c-1082 0 -1152 1 -1182 18 -65 35 -85 100 -59 188 22 77 72 131 163 176 74
37 81 38 182 38 93 0 113 -3 161 -26 30 -14 77 -45 105 -68 53 -44 92 -52 119
-25 22 21 20 72 -4 112 -19 31 -19 34 -3 59 26 39 125 108 191 134 44 17 77
22 146 21 l88 0 -6 51 c-3 29 -9 77 -12 108 -22 196 150 418 362 468 62 14
185 12 249 -4z m-4762 -367 c19 -31 33 -59 30 -62 -4 -3 -1 -6 6 -6 7 0 10 -4
7 -9 -3 -5 1 -12 10 -15 8 -3 12 -11 8 -17 -4 -7 -3 -9 3 -6 6 4 18 -5 28 -19
9 -14 15 -27 13 -28 -6 -3 -140 -110 -243 -191 -93 -75 -225 -197 -225 -209 0
-3 6 -3 13 0 8 3 19 -8 28 -25 l14 -30 85 75 c105 93 252 207 333 257 l62 39
30 -34 c16 -19 43 -50 59 -69 16 -19 76 -83 135 -143 58 -60 99 -105 91 -101
-8 3 -5 -2 7 -12 l22 -18 -35 -95 c-46 -125 -53 -137 -78 -143 -11 -3 -73 -19
-136 -35 -160 -43 -292 -56 -485 -49 -143 6 -358 28 -408 43 -17 5 -18 14 -12
87 19 236 52 392 120 567 71 183 220 413 327 504 l42 36 56 -118 c31 -65 73
-143 93 -174z m397 222 c37 -37 18 -76 -58 -114 -36 -18 -64 -10 -82 24 -16
29 -12 46 16 79 21 25 33 31 65 31 26 0 46 -7 59 -20z m458 -1069 c52 -33 141
-83 198 -111 l104 -50 -15 -29 c-8 -16 -20 -35 -27 -43 -13 -13 -77 -105 -172
-246 l-49 -74 25 -25 25 -25 49 59 c27 32 51 60 54 63 3 3 27 34 54 70 28 36
67 83 88 105 20 22 48 53 62 70 l24 30 56 -19 c30 -11 54 -22 52 -25 -2 -3 6
-7 17 -7 12 -1 69 -15 127 -32 58 -17 117 -32 131 -32 14 0 29 -3 33 -7 3 -4
12 -8 19 -9 128 -17 147 -20 162 -25 10 -2 43 -4 133 -7 26 -1 41 -6 37 -12
-4 -6 -11 -8 -16 -5 -5 3 -6 -1 -2 -10 8 -22 -212 -239 -234 -231 -8 3 -12 2
-9 -3 3 -5 -13 -21 -37 -36 -23 -16 -54 -36 -69 -46 -16 -11 -34 -16 -44 -12
-12 4 -15 3 -10 -5 4 -8 -16 -23 -56 -43 -191 -93 -408 -141 -709 -154 l-145
-7 -32 70 c-75 168 -111 318 -119 493 -8 182 21 374 74 485 l16 32 56 -43 c31
-23 98 -70 149 -104z"/>
<path d="M6745 7537 c-54 -30 -85 -87 -85 -155 0 -77 33 -130 99 -158 146 -61
301 97 232 238 -43 91 -157 125 -246 75z"/>
<path d="M7141 7106 c-21 -25 -54 -191 -54 -276 -2 -101 14 -139 69 -165 45
-21 86 -14 145 24 53 36 212 208 206 224 -2 7 -17 10 -33 8 -74 -9 -78 -7 -99
31 -19 37 -22 38 -75 38 -30 0 -61 4 -68 9 -7 4 -19 30 -26 56 -13 51 -44 76
-65 51z m63 -207 c-5 -8 1 -10 19 -5 17 4 31 1 41 -10 9 -8 16 -12 16 -8 0 4
9 -1 20 -11 17 -16 18 -20 5 -45 -17 -33 -92 -100 -112 -100 -35 0 -41 141 -7
175 18 18 28 20 18 4z"/>
<path d="M7347 7063 c-13 -12 -7 -52 9 -61 20 -11 74 -3 74 12 0 37 -60 73
-83 49z"/>
<path d="M3040 4343 c0 -13 5 -23 10 -23 13 0 13 11 0 30 -8 12 -10 11 -10 -7z"/>
<path d="M3097 4252 c-14 -15 -17 -29 -12 -56 4 -20 11 -36 15 -36 5 0 17 -3
27 -6 16 -6 16 -5 -2 9 -19 15 -19 15 6 10 16 -3 30 1 38 11 11 13 11 16 -3
16 -9 0 -16 5 -16 10 0 6 -6 10 -14 10 -8 0 -16 12 -18 26 -3 26 -3 26 -21 6z
m53 -62 c0 -5 -4 -10 -9 -10 -6 0 -13 5 -16 10 -3 6 1 10 9 10 9 0 16 -4 16
-10z"/>
<path d="M2856 4144 c-4 -9 -4 -19 -1 -22 3 -3 5 1 5 9 0 11 2 11 10 -1 8 -13
10 -13 10 2 0 23 -17 31 -24 12z"/>
<path d="M2976 4145 c4 -8 10 -12 15 -9 11 6 2 24 -11 24 -5 0 -7 -7 -4 -15z"/>
<path d="M3010 4149 c0 -5 5 -7 10 -4 6 3 10 8 10 11 0 2 -4 4 -10 4 -5 0 -10
-5 -10 -11z"/>
<path d="M2855 4099 c-4 -6 -5 -12 -2 -15 2 -3 7 2 10 11 7 17 1 20 -8 4z"/>
<path d="M2950 4070 c-8 -5 -10 -10 -5 -10 6 0 17 5 25 10 8 5 11 10 5 10 -5
0 -17 -5 -25 -10z"/>
<path d="M7650 4309 c0 -5 5 -7 10 -4 6 3 10 8 10 11 0 2 -4 4 -10 4 -5 0 -10
-5 -10 -11z"/>
<path d="M7571 4254 c0 -11 3 -14 6 -6 3 7 2 16 -1 19 -3 4 -6 -2 -5 -13z"/>
<path d="M7650 4245 c0 -8 7 -15 16 -15 14 0 14 3 4 15 -7 8 -14 15 -16 15 -2
0 -4 -7 -4 -15z"/>
<path d="M7628 4193 c7 -3 16 -2 19 1 4 3 -2 6 -13 5 -11 0 -14 -3 -6 -6z"/>
<path d="M4268 2523 c6 -2 18 -2 25 0 6 3 1 5 -13 5 -14 0 -19 -2 -12 -5z"/>
<path d="M4325 2510 c11 -5 27 -9 35 -9 9 0 8 4 -5 9 -11 5 -27 9 -35 9 -9 0
-8 -4 5 -9z"/>
<path d="M4295 2491 c-4 -7 0 -8 11 -4 12 4 15 3 10 -5 -4 -7 -1 -12 8 -12 8
0 18 5 21 10 3 6 2 10 -4 10 -5 0 -16 3 -24 6 -8 3 -18 1 -22 -5z"/>
<path d="M4378 2473 c7 -3 16 -2 19 1 4 3 -2 6 -13 5 -11 0 -14 -3 -6 -6z"/>
<path d="M4445 2449 c-4 -6 -5 -11 -4 -12 2 -1 14 -7 25 -14 29 -16 37 -6 16
18 -19 22 -28 24 -37 8z"/>
<path d="M4540 2441 c0 -11 59 -36 67 -28 3 3 -6 9 -21 13 -14 3 -26 10 -26
15 0 5 -4 9 -10 9 -5 0 -10 -4 -10 -9z"/>
<path d="M4668 2433 c7 -3 16 -2 19 1 4 3 -2 6 -13 5 -11 0 -14 -3 -6 -6z"/>
<path d="M4630 2410 c-8 -5 -10 -10 -5 -10 6 0 17 5 25 10 8 5 11 10 5 10 -5
0 -17 -5 -25 -10z"/>
<path d="M4150 1990 c-9 -6 -10 -10 -3 -10 6 0 15 5 18 10 8 12 4 12 -15 0z"/>
</g>
</svg>
